<?xml version="1.0" encoding="UTF-8" standalone="no"?>
<!DOCTYPE svg PUBLIC "-//W3C//DTD SVG 1.1//EN" "http://www.w3.org/Graphics/SVG/1.1/DTD/svg11.dtd">
<svg width="100%" height="100%" viewBox="0 0 256 256" version="1.1" xmlns="http://www.w3.org/2000/svg" xmlns:xlink="http://www.w3.org/1999/xlink" xml:space="preserve" xmlns:serif="http://www.serif.com/" style="fill-rule:evenodd;clip-rule:evenodd;stroke-linejoin:round;stroke-miterlimit:2;">
    <g transform="matrix(2.81,0,0,2.81,1.40659,1.40659)">
        <g transform="matrix(0.355872,0,0,0.355872,-0.500567,-0.500567)">
            <path d="M66.66,30.895C81.087,30.895 94.651,36.515 104.851,46.715L127.857,69.721L150.859,46.715C161.062,36.515 174.626,30.895 189.053,30.895C203.482,30.895 217.043,36.515 227.246,46.715C237.449,56.918 243.067,70.482 243.067,84.909C243.067,99.335 237.449,112.899 227.246,123.102L127.857,222.492L28.467,123.102C18.267,112.899 12.647,99.335 12.647,84.909C12.647,70.482 18.264,56.915 28.467,46.715C38.67,36.515 52.234,30.895 66.66,30.895Z" style="fill:rgb(72,160,220);"/>
        </g>
        <path d="M45,84.334L6.802,46.136C2.416,41.75 0,35.918 0,29.716C0,23.513 2.416,17.682 6.802,13.296C11.188,8.91 17.019,6.494 23.222,6.494C29.425,6.494 35.256,8.91 39.642,13.296L45,18.654L50.358,13.296C54.744,8.91 60.576,6.494 66.778,6.494C72.981,6.494 78.812,8.91 83.198,13.296C87.585,17.682 90,23.513 90,29.716C90,35.919 87.585,41.75 83.198,46.136L45,84.334ZM23.222,10.494C18.088,10.494 13.261,12.494 9.63,16.124C5.999,19.754 4,24.582 4,29.716C4,34.85 6,39.677 9.63,43.308L45,78.678L80.37,43.308C84.001,39.677 86,34.85 86,29.716C86,24.582 84.001,19.755 80.37,16.124C76.739,12.494 71.913,10.494 66.778,10.494C61.644,10.494 56.817,12.494 53.186,16.124L45,24.311L36.813,16.124C33.183,12.494 28.356,10.494 23.222,10.494Z" style="fill:rgb(56,69,79);fill-rule:nonzero;"/>
    </g>
</svg>
